<svg width="62" height="62" viewBox="0 0 62 62" fill="none" xmlns="http://www.w3.org/2000/svg">
<g clip-path="url(#clip0_189_618)">
<path d="M15.5 10.333H12.9167C11.5464 10.333 10.2322 10.8774 9.26328 11.8463C8.29434 12.8152 7.75 14.1294 7.75 15.4997V24.5413C7.75 28.3096 9.24695 31.9236 11.9115 34.5882C14.5761 37.2527 18.19 38.7497 21.9583 38.7497C25.7266 38.7497 29.3406 37.2527 32.0051 34.5882C34.6697 31.9236 36.1667 28.3096 36.1667 24.5413V15.4997C36.1667 14.1294 35.6223 12.8152 34.6534 11.8463C33.6844 10.8774 32.3703 10.333 31 10.333H28.4167" stroke="#112233" stroke-width="2.5" stroke-linecap="round" stroke-linejoin="round"/>
<path d="M20.6667 38.75C20.6667 40.7855 21.0676 42.801 21.8466 44.6816C22.6255 46.5621 23.7672 48.2708 25.2065 49.7102C26.6458 51.1495 28.3545 52.2912 30.2351 53.0701C32.1156 53.8491 34.1312 54.25 36.1667 54.25C38.2022 54.25 40.2177 53.8491 42.0983 53.0701C43.9788 52.2912 45.6875 51.1495 47.1268 49.7102C48.5662 48.2708 49.7079 46.5621 50.4868 44.6816C51.2658 42.801 51.6667 40.7855 51.6667 38.75V31" stroke="#112233" stroke-width="2.5" stroke-linecap="round" stroke-linejoin="round"/>
<path d="M28.4167 7.75V12.9167" stroke="#9E58DC" stroke-width="2.5" stroke-linecap="round" stroke-linejoin="round"/>
<path d="M15.5 7.75V12.9167" stroke="#9E58DC" stroke-width="2.5" stroke-linecap="round" stroke-linejoin="round"/>
<path d="M46.5 25.8337C46.5 27.2039 47.0443 28.5181 48.0133 29.487C48.9822 30.456 50.2964 31.0003 51.6667 31.0003C53.037 31.0003 54.3511 30.456 55.3201 29.487C56.289 28.5181 56.8333 27.2039 56.8333 25.8337C56.8333 24.4634 56.289 23.1492 55.3201 22.1803C54.3511 21.2113 53.037 20.667 51.6667 20.667C50.2964 20.667 48.9822 21.2113 48.0133 22.1803C47.0443 23.1492 46.5 24.4634 46.5 25.8337Z" stroke="#9E58DC" stroke-width="2.5" stroke-linecap="round" stroke-linejoin="round"/>
</g>
<defs>
<clipPath id="clip0_189_618">
<rect width="62" height="62" fill="white"/>
</clipPath>
</defs>
</svg>
