<svg width="62" height="62" viewBox="0 0 62 62" fill="none" xmlns="http://www.w3.org/2000/svg">
<g clip-path="url(#clip0_189_607)">
<path d="M12.9167 18.6C12.9167 17.0927 13.5154 15.6471 14.5813 14.5812C15.6471 13.5154 17.0927 12.9166 18.6 12.9166H21.1833C22.684 12.9158 24.1234 12.3214 25.1875 11.2633L26.9958 9.45497C27.524 8.92384 28.1519 8.50235 28.8435 8.21473C29.5352 7.92712 30.2768 7.77905 31.0258 7.77905C31.7749 7.77905 32.5165 7.92712 33.2081 8.21473C33.8997 8.50235 34.5277 8.92384 35.0558 9.45497L36.8642 11.2633C37.9285 12.3225 39.37 12.9166 40.8683 12.9166H43.4517C44.959 12.9166 46.4046 13.5154 47.4704 14.5812C48.5362 15.6471 49.135 17.0927 49.135 18.6V21.1833C49.135 22.6816 49.7292 24.1231 50.7883 25.1875L52.5967 26.9958C53.1278 27.524 53.5493 28.1519 53.8369 28.8435C54.1245 29.5351 54.2726 30.2768 54.2726 31.0258C54.2726 31.7748 54.1245 32.5165 53.8369 33.2081C53.5493 33.8997 53.1278 34.5276 52.5967 35.0558L50.7883 36.8641C49.7302 37.9282 49.1359 39.3677 49.135 40.8683V43.4516C49.135 44.959 48.5362 46.4045 47.4704 47.4704C46.4046 48.5362 44.959 49.135 43.4517 49.135H40.8683C39.3677 49.1358 37.9283 49.7302 36.8642 50.7883L35.0558 52.5966C34.5277 53.1278 33.8997 53.5493 33.2081 53.8369C32.5165 54.1245 31.7749 54.2726 31.0258 54.2726C30.2768 54.2726 29.5352 54.1245 28.8435 53.8369C28.1519 53.5493 27.524 53.1278 26.9958 52.5966L25.1875 50.7883C24.1234 49.7302 22.684 49.1358 21.1833 49.135H18.6C17.0927 49.135 15.6471 48.5362 14.5813 47.4704C13.5154 46.4045 12.9167 44.959 12.9167 43.4516V40.8683C12.9158 39.3677 12.3215 37.9282 11.2633 36.8641L9.455 35.0558C8.92387 34.5276 8.50238 33.8997 8.21476 33.2081C7.92715 32.5165 7.77908 31.7748 7.77908 31.0258C7.77908 30.2768 7.92715 29.5351 8.21476 28.8435C8.50238 28.1519 8.92387 27.524 9.455 26.9958L11.2633 25.1875C12.3215 24.1234 12.9158 22.684 12.9167 21.1833V18.6Z" stroke="#112233" stroke-width="2.5" stroke-linecap="round" stroke-linejoin="round"/>
<path d="M23.25 30.9997L28.4167 36.1663L38.75 25.833" stroke="#9E58DC" stroke-width="2.5" stroke-linecap="round" stroke-linejoin="round"/>
</g>
<defs>
<clipPath id="clip0_189_607">
<rect width="62" height="62" fill="white"/>
</clipPath>
</defs>
</svg>
