<svg width="62" height="62" viewBox="0 0 62 62" fill="none" xmlns="http://www.w3.org/2000/svg">
<g clip-path="url(#clip0_189_636)">
<path d="M7.75 54.25H54.25" stroke="black" stroke-width="2.5" stroke-linecap="round" stroke-linejoin="round"/>
<path d="M12.9167 54.25V12.9167C12.9167 11.5464 13.461 10.2322 14.4299 9.26328C15.3989 8.29434 16.713 7.75 18.0833 7.75H43.9167C45.287 7.75 46.6011 8.29434 47.5701 9.26328C48.539 10.2322 49.0833 11.5464 49.0833 12.9167V54.25" stroke="black" stroke-width="2.5" stroke-linecap="round" stroke-linejoin="round"/>
<path d="M23.25 54.25V43.9167C23.25 42.5464 23.7943 41.2322 24.7633 40.2633C25.7322 39.2943 27.0464 38.75 28.4167 38.75H33.5833C34.9536 38.75 36.2678 39.2943 37.2367 40.2633C38.2057 41.2322 38.75 42.5464 38.75 43.9167V54.25" stroke="black" stroke-width="2.5" stroke-linecap="round" stroke-linejoin="round"/>
<path d="M25.8333 23.25H36.1667" stroke="#9E58DC" stroke-width="2.5" stroke-linecap="round" stroke-linejoin="round"/>
<path d="M31 18.083V28.4163" stroke="#9E58DC" stroke-width="2.5" stroke-linecap="round" stroke-linejoin="round"/>
</g>
<defs>
<clipPath id="clip0_189_636">
<rect width="62" height="62" fill="white"/>
</clipPath>
</defs>
</svg>
