<svg width="454" height="447" viewBox="0 0 454 447" fill="none" xmlns="http://www.w3.org/2000/svg">
<path d="M226.721 446.617C220.681 446.617 216.151 445.13 213.131 442.157C210.111 438.589 208.601 433.831 208.601 427.885V425.208C208.601 322.247 123.824 238.781 19.2467 238.781C18.9517 238.781 18.6596 238.777 18.3704 238.77C8.64048 238.531 0.220703 230.523 0.220703 220.941C0.220703 215.589 1.7307 211.426 4.75071 208.453C8.37471 205.479 13.2067 203.993 19.2467 203.993C122.823 203.993 208.601 121.325 208.601 19.3486C208.601 13.4019 210.111 8.94194 213.131 5.96861C216.151 2.40059 220.681 0.616577 226.721 0.616577C232.761 0.616577 237.291 2.40059 240.311 5.96861C243.331 8.94194 244.841 13.4019 244.841 19.3486C244.841 121.325 330.618 203.993 434.195 203.993C440.235 203.993 444.765 205.479 447.785 208.453C451.409 211.426 453.221 215.589 453.221 220.941C453.221 226.887 451.409 231.347 447.785 234.321C444.765 237.294 440.235 238.781 434.195 238.781C329.617 238.781 244.841 322.247 244.841 425.209V427.885C244.841 433.831 243.331 438.589 240.311 442.157C237.291 445.13 232.761 446.617 226.721 446.617Z" fill="url(#paint0_linear_149_159)"/>
<defs>
<linearGradient id="paint0_linear_149_159" x1="226.721" y1="0.616577" x2="226.721" y2="446.617" gradientUnits="userSpaceOnUse">
<stop offset="0.32" stop-color="#9E58DC"/>
<stop offset="1" stop-color="#7258DC"/>
</linearGradient>
</defs>
</svg>
