<svg width="62" height="62" viewBox="0 0 62 62" fill="none" xmlns="http://www.w3.org/2000/svg">
<g clip-path="url(#clip0_189_625)">
<path d="M20.6667 18.0833C20.6667 20.8239 21.7554 23.4522 23.6932 25.3901C25.6311 27.328 28.2595 28.4167 31 28.4167C33.7406 28.4167 36.3689 27.328 38.3068 25.3901C40.2447 23.4522 41.3334 20.8239 41.3334 18.0833C41.3334 15.3428 40.2447 12.7144 38.3068 10.7766C36.3689 8.83869 33.7406 7.75 31 7.75C28.2595 7.75 25.6311 8.83869 23.6932 10.7766C21.7554 12.7144 20.6667 15.3428 20.6667 18.0833Z" stroke="#112233" stroke-width="2.5" stroke-linecap="round" stroke-linejoin="round"/>
<path d="M15.5 54.25V49.0833C15.5 46.3428 16.5887 43.7144 18.5266 41.7766C20.4644 39.8387 23.0928 38.75 25.8333 38.75H27.125" stroke="#112233" stroke-width="2.5" stroke-linecap="round" stroke-linejoin="round"/>
<path d="M45.9835 53.7768L40.3725 56.7167C40.2059 56.8033 40.0186 56.842 39.8314 56.8284C39.6442 56.8147 39.4644 56.7493 39.3122 56.6395C39.16 56.5296 39.0414 56.3796 38.9695 56.2062C38.8976 56.0328 38.8753 55.8428 38.9051 55.6575L39.9772 49.4291L35.4383 45.0193C35.3028 44.8884 35.2069 44.7219 35.1615 44.539C35.116 44.3562 35.123 44.1642 35.1814 43.9851C35.2399 43.8059 35.3475 43.6468 35.4921 43.526C35.6366 43.4051 35.8122 43.3273 35.9989 43.3014L42.2712 42.3921L45.0767 36.7268C45.1606 36.5581 45.2899 36.4161 45.4501 36.3169C45.6103 36.2176 45.795 36.165 45.9835 36.165C46.1719 36.165 46.3566 36.2176 46.5168 36.3169C46.677 36.4161 46.8063 36.5581 46.8902 36.7268L49.6957 42.3921L55.968 43.3014C56.1542 43.3282 56.3291 43.4065 56.473 43.5275C56.6169 43.6485 56.7241 43.8074 56.7824 43.9861C56.8407 44.1648 56.8479 44.3563 56.803 44.5389C56.7582 44.7215 56.6631 44.8879 56.5286 45.0193L51.9897 49.4291L53.0592 55.6549C53.0913 55.8406 53.0707 56.0315 52.9997 56.206C52.9288 56.3806 52.8103 56.5317 52.6577 56.6423C52.5052 56.7529 52.3247 56.8184 52.1367 56.8316C51.9488 56.8447 51.7609 56.8049 51.5945 56.7167L45.9835 53.7768Z" stroke="#9E58DC" stroke-width="2.5" stroke-linecap="round" stroke-linejoin="round"/>
</g>
<defs>
<clipPath id="clip0_189_625">
<rect width="62" height="62" fill="white"/>
</clipPath>
</defs>
</svg>
